{
	"asset":{
		"generator":"Khronos glTF Blender I/O v4.0.44",
		"version":"2.0"
	},
	"extensionsUsed":[
		"KHR_materials_transmission",
		"KHR_materials_ior"
	],
	"scene":0,
	"scenes":[
		{
			"name":"Scene",
			"nodes":[
				0
			]
		}
	],
	"nodes":[
		{
			"mesh":0,
			"name":"Cube",
			"scale":[
				101.28264617919922,
				0.3500000238418579,
				20.290447235107422
			]
		}
	],
	"materials":[
		{
			"doubleSided":true,
			"extensions":{
				"KHR_materials_transmission":{
					"transmissionFactor":0.09090909361839294
				},
				"KHR_materials_ior":{
					"ior":1.4500000476837158
				}
			},
			"name":"Material.005",
			"pbrMetallicRoughness":{
				"baseColorFactor":[
					0.8279539346694946,
					0.914307713508606,
					1,
					1
				],
				"metallicFactor":0,
				"roughnessFactor":0.23181816935539246
			}
		}
	],
	"meshes":[
		{
			"name":"Cube.001",
			"primitives":[
				{
					"attributes":{
						"POSITION":0,
						"NORMAL":1,
						"TEXCOORD_0":2
					},
					"indices":3,
					"material":0
				}
			]
		}
	],
	"accessors":[
		{
			"bufferView":0,
			"componentType":5126,
			"count":6369,
			"max":[
				0.9999842643737793,
				8.718060493469238,
				0.999997079372406
			],
			"min":[
				-1.0041885375976562,
				-0.9910773038864136,
				-1.0000430345535278
			],
			"type":"VEC3"
		},
		{
			"bufferView":1,
			"componentType":5126,
			"count":6369,
			"type":"VEC3"
		},
		{
			"bufferView":2,
			"componentType":5126,
			"count":6369,
			"type":"VEC2"
		},
		{
			"bufferView":3,
			"componentType":5123,
			"count":36864,
			"type":"SCALAR"
		}
	],
	"bufferViews":[
		{
			"buffer":0,
			"byteLength":76428,
			"byteOffset":0,
			"target":34962
		},
		{
			"buffer":0,
			"byteLength":76428,
			"byteOffset":76428,
			"target":34962
		},
		{
			"buffer":0,
			"byteLength":50952,
			"byteOffset":152856,
			"target":34962
		},
		{
			"buffer":0,
			"byteLength":73728,
			"byteOffset":203808,
			"target":34963
		}
	],
	"buffers":[
		{
			"byteLength":277536,
			"uri":"asset.bin"
		}
	]
}
