{
	"asset":{
		"generator":"Khronos glTF Blender I/O v4.0.44",
		"version":"2.0"
	},
	"scene":0,
	"scenes":[
		{
			"name":"Scene",
			"nodes":[
				0
			]
		}
	],
	"nodes":[
		{
			"mesh":0,
			"name":"Cube.002",
			"scale":[
				100,
				0.5,
				20
			]
		}
	],
	"materials":[
		{
			"doubleSided":true,
			"name":"Material",
			"pbrMetallicRoughness":{
				"baseColorFactor":[
					0.7378686666488647,
					0.8168832063674927,
					0.9161677360534668,
					1
				],
				"metallicFactor":0
			}
		}
	],
	"meshes":[
		{
			"name":"Cube",
			"primitives":[
				{
					"attributes":{
						"POSITION":0,
						"NORMAL":1,
						"TEXCOORD_0":2
					},
					"indices":3,
					"material":0
				}
			]
		}
	],
	"accessors":[
		{
			"bufferView":0,
			"componentType":5126,
			"count":4400,
			"max":[
				1,
				3.545823335647583,
				1
			],
			"min":[
				-1,
				-1,
				-1
			],
			"type":"VEC3"
		},
		{
			"bufferView":1,
			"componentType":5126,
			"count":4400,
			"type":"VEC3"
		},
		{
			"bufferView":2,
			"componentType":5126,
			"count":4400,
			"type":"VEC2"
		},
		{
			"bufferView":3,
			"componentType":5123,
			"count":25218,
			"type":"SCALAR"
		}
	],
	"bufferViews":[
		{
			"buffer":0,
			"byteLength":52800,
			"byteOffset":0,
			"target":34962
		},
		{
			"buffer":0,
			"byteLength":52800,
			"byteOffset":52800,
			"target":34962
		},
		{
			"buffer":0,
			"byteLength":35200,
			"byteOffset":105600,
			"target":34962
		},
		{
			"buffer":0,
			"byteLength":50436,
			"byteOffset":140800,
			"target":34963
		}
	],
	"buffers":[
		{
			"byteLength":191236,
			"uri":"asset.bin"
		}
	]
}
