{
	"asset":{
		"generator":"Khronos glTF Blender I/O v4.0.44",
		"version":"2.0"
	},
	"extensionsUsed":[
		"KHR_materials_transmission",
		"KHR_materials_ior"
	],
	"scene":0,
	"scenes":[
		{
			"name":"Scene",
			"nodes":[
				0
			]
		}
	],
	"nodes":[
		{
			"mesh":0,
			"name":"Cone",
			"scale":[
				8.507857322692871,
				7.081619739532471,
				10.006909370422363
			]
		}
	],
	"materials":[
		{
			"doubleSided":true,
			"name":"Material.010",
			"pbrMetallicRoughness":{
				"baseColorFactor":[
					0.20731773972511292,
					0.1769903600215912,
					0.1439114809036255,
					1
				],
				"metallicFactor":0,
				"roughnessFactor":0.781818151473999
			}
		},
		{
			"doubleSided":true,
			"extensions":{
				"KHR_materials_transmission":{
					"transmissionFactor":0.09090909361839294
				},
				"KHR_materials_ior":{
					"ior":1.4500000476837158
				}
			},
			"name":"Material.005",
			"pbrMetallicRoughness":{
				"baseColorFactor":[
					0.8279539346694946,
					0.914307713508606,
					1,
					1
				],
				"metallicFactor":0,
				"roughnessFactor":0.23181816935539246
			}
		}
	],
	"meshes":[
		{
			"name":"Cone",
			"primitives":[
				{
					"attributes":{
						"POSITION":0,
						"NORMAL":1,
						"TEXCOORD_0":2
					},
					"indices":3,
					"material":0
				},
				{
					"attributes":{
						"POSITION":4,
						"NORMAL":5,
						"TEXCOORD_0":6
					},
					"indices":7,
					"material":1
				}
			]
		}
	],
	"accessors":[
		{
			"bufferView":0,
			"componentType":5126,
			"count":21,
			"max":[
				0.9510565400123596,
				1.9995936155319214,
				1
			],
			"min":[
				-0.9510565400123596,
				-0.0004063844680786133,
				-1
			],
			"type":"VEC3"
		},
		{
			"bufferView":1,
			"componentType":5126,
			"count":21,
			"type":"VEC3"
		},
		{
			"bufferView":2,
			"componentType":5126,
			"count":21,
			"type":"VEC2"
		},
		{
			"bufferView":3,
			"componentType":5123,
			"count":54,
			"type":"SCALAR"
		},
		{
			"bufferView":4,
			"componentType":5126,
			"count":21,
			"max":[
				0.23590581119060516,
				2.0173583030700684,
				0.2480459064245224
			],
			"min":[
				-0.23590581119060516,
				1.521266222000122,
				-0.20067356526851654
			],
			"type":"VEC3"
		},
		{
			"bufferView":5,
			"componentType":5126,
			"count":21,
			"type":"VEC3"
		},
		{
			"bufferView":6,
			"componentType":5126,
			"count":21,
			"type":"VEC2"
		},
		{
			"bufferView":7,
			"componentType":5123,
			"count":54,
			"type":"SCALAR"
		}
	],
	"bufferViews":[
		{
			"buffer":0,
			"byteLength":252,
			"byteOffset":0,
			"target":34962
		},
		{
			"buffer":0,
			"byteLength":252,
			"byteOffset":252,
			"target":34962
		},
		{
			"buffer":0,
			"byteLength":168,
			"byteOffset":504,
			"target":34962
		},
		{
			"buffer":0,
			"byteLength":108,
			"byteOffset":672,
			"target":34963
		},
		{
			"buffer":0,
			"byteLength":252,
			"byteOffset":780,
			"target":34962
		},
		{
			"buffer":0,
			"byteLength":252,
			"byteOffset":1032,
			"target":34962
		},
		{
			"buffer":0,
			"byteLength":168,
			"byteOffset":1284,
			"target":34962
		},
		{
			"buffer":0,
			"byteLength":108,
			"byteOffset":1452,
			"target":34963
		}
	],
	"buffers":[
		{
			"byteLength":1560,
			"uri":"mountain.bin"
		}
	]
}
