{
	"asset":{
		"generator":"Khronos glTF Blender I/O v4.0.44",
		"version":"2.0"
	},
	"extensionsUsed":[
		"KHR_materials_transmission",
		"KHR_materials_ior"
	],
	"scene":0,
	"scenes":[
		{
			"name":"Scene",
			"nodes":[
				0
			]
		}
	],
	"nodes":[
		{
			"mesh":0,
			"name":"Sphere.011",
			"rotation":[
				0.06761933863162994,
				-0.8560150265693665,
				-0.29565492272377014,
				0.4186338484287262
			],
			"translation":[
				-33.72227478027344,
				2.572852849960327,
				-13.218626022338867
			]
		}
	],
	"materials":[
		{
			"doubleSided":true,
			"name":"Material.071",
			"pbrMetallicRoughness":{
				"baseColorFactor":[
					0.20731773972511292,
					0.1769903600215912,
					0.1439114809036255,
					1
				],
				"metallicFactor":0,
				"roughnessFactor":0.5
			}
		},
		{
			"doubleSided":true,
			"extensions":{
				"KHR_materials_transmission":{
					"transmissionFactor":0.09090909361839294
				},
				"KHR_materials_ior":{
					"ior":1.4500000476837158
				}
			},
			"name":"Material.072",
			"pbrMetallicRoughness":{
				"baseColorFactor":[
					0.8279539346694946,
					0.914307713508606,
					1,
					1
				],
				"metallicFactor":0,
				"roughnessFactor":0.38181817531585693
			}
		}
	],
	"meshes":[
		{
			"name":"Sphere.012",
			"primitives":[
				{
					"attributes":{
						"POSITION":0,
						"NORMAL":1,
						"TEXCOORD_0":2
					},
					"indices":3,
					"material":0
				},
				{
					"attributes":{
						"POSITION":4,
						"NORMAL":5,
						"TEXCOORD_0":6
					},
					"indices":7,
					"material":1
				}
			]
		}
	],
	"accessors":[
		{
			"bufferView":0,
			"componentType":5126,
			"count":67,
			"max":[
				1.1105726957321167,
				0.12141108512878418,
				0.9223669171333313
			],
			"min":[
				-0.8817734122276306,
				-1.4186222553253174,
				-1.2090528011322021
			],
			"type":"VEC3"
		},
		{
			"bufferView":1,
			"componentType":5126,
			"count":67,
			"type":"VEC3"
		},
		{
			"bufferView":2,
			"componentType":5126,
			"count":67,
			"type":"VEC2"
		},
		{
			"bufferView":3,
			"componentType":5123,
			"count":210,
			"type":"SCALAR"
		},
		{
			"bufferView":4,
			"componentType":5126,
			"count":70,
			"max":[
				1.253422498703003,
				0.5855666399002075,
				1.0884861946105957
			],
			"min":[
				-0.963133692741394,
				-1.0965639352798462,
				-1.3206567764282227
			],
			"type":"VEC3"
		},
		{
			"bufferView":5,
			"componentType":5126,
			"count":70,
			"type":"VEC3"
		},
		{
			"bufferView":6,
			"componentType":5126,
			"count":70,
			"type":"VEC2"
		},
		{
			"bufferView":7,
			"componentType":5123,
			"count":210,
			"type":"SCALAR"
		}
	],
	"bufferViews":[
		{
			"buffer":0,
			"byteLength":804,
			"byteOffset":0,
			"target":34962
		},
		{
			"buffer":0,
			"byteLength":804,
			"byteOffset":804,
			"target":34962
		},
		{
			"buffer":0,
			"byteLength":536,
			"byteOffset":1608,
			"target":34962
		},
		{
			"buffer":0,
			"byteLength":420,
			"byteOffset":2144,
			"target":34963
		},
		{
			"buffer":0,
			"byteLength":840,
			"byteOffset":2564,
			"target":34962
		},
		{
			"buffer":0,
			"byteLength":840,
			"byteOffset":3404,
			"target":34962
		},
		{
			"buffer":0,
			"byteLength":560,
			"byteOffset":4244,
			"target":34962
		},
		{
			"buffer":0,
			"byteLength":420,
			"byteOffset":4804,
			"target":34963
		}
	],
	"buffers":[
		{
			"byteLength":5224,
			"uri":"rock.bin"
		}
	]
}
