{
	"asset":{
		"generator":"Khronos glTF Blender I/O v4.0.44",
		"version":"2.0"
	},
	"scene":0,
	"scenes":[
		{
			"name":"Scene",
			"nodes":[
				0
			]
		}
	],
	"nodes":[
		{
			"mesh":0,
			"name":"Cylinder.012"
		}
	],
	"materials":[
		{
			"doubleSided":true,
			"name":"Material.073",
			"pbrMetallicRoughness":{
				"baseColorTexture":{
					"index":0
				},
				"metallicFactor":0,
				"roughnessFactor":0.5
			}
		},
		{
			"doubleSided":true,
			"name":"Material.074",
			"pbrMetallicRoughness":{
				"baseColorTexture":{
					"index":1
				},
				"metallicFactor":0,
				"roughnessFactor":0.5
			}
		}
	],
	"meshes":[
		{
			"name":"Cylinder.014",
			"primitives":[
				{
					"attributes":{
						"POSITION":0,
						"NORMAL":1,
						"TEXCOORD_0":2
					},
					"indices":3,
					"material":0
				},
				{
					"attributes":{
						"POSITION":4,
						"NORMAL":5,
						"TEXCOORD_0":6
					},
					"indices":7,
					"material":1
				}
			]
		}
	],
	"textures":[
		{
			"sampler":0,
			"source":0
		},
		{
			"sampler":0,
			"source":0
		}
	],
	"images":[
		{
			"mimeType":"image/jpeg",
			"name":"Sans titre-2",
			"uri":"Sans%20titre-2.jpg.019/Sans%20titre-2.jpg"
		}
	],
	"accessors":[
		{
			"bufferView":0,
			"componentType":5126,
			"count":280,
			"max":[
				2.8635482788085938,
				12.136835098266602,
				2.717008590698242
			],
			"min":[
				-2.6187896728515625,
				2.2051429748535156,
				-2.8815536499023438
			],
			"type":"VEC3"
		},
		{
			"bufferView":1,
			"componentType":5126,
			"count":280,
			"type":"VEC3"
		},
		{
			"bufferView":2,
			"componentType":5126,
			"count":280,
			"type":"VEC2"
		},
		{
			"bufferView":3,
			"componentType":5123,
			"count":774,
			"type":"SCALAR"
		},
		{
			"bufferView":4,
			"componentType":5126,
			"count":330,
			"max":[
				3.0147857666015625,
				12.109752655029297,
				2.866285800933838
			],
			"min":[
				-2.7702102661132812,
				-0.017531633377075195,
				-3.0413527488708496
			],
			"type":"VEC3"
		},
		{
			"bufferView":5,
			"componentType":5126,
			"count":330,
			"type":"VEC3"
		},
		{
			"bufferView":6,
			"componentType":5126,
			"count":330,
			"type":"VEC2"
		},
		{
			"bufferView":7,
			"componentType":5123,
			"count":942,
			"type":"SCALAR"
		}
	],
	"bufferViews":[
		{
			"buffer":0,
			"byteLength":3360,
			"byteOffset":0,
			"target":34962
		},
		{
			"buffer":0,
			"byteLength":3360,
			"byteOffset":3360,
			"target":34962
		},
		{
			"buffer":0,
			"byteLength":2240,
			"byteOffset":6720,
			"target":34962
		},
		{
			"buffer":0,
			"byteLength":1548,
			"byteOffset":8960,
			"target":34963
		},
		{
			"buffer":0,
			"byteLength":3960,
			"byteOffset":10508,
			"target":34962
		},
		{
			"buffer":0,
			"byteLength":3960,
			"byteOffset":14468,
			"target":34962
		},
		{
			"buffer":0,
			"byteLength":2640,
			"byteOffset":18428,
			"target":34962
		},
		{
			"buffer":0,
			"byteLength":1884,
			"byteOffset":21068,
			"target":34963
		}
	],
	"samplers":[
		{
			"magFilter":9729,
			"minFilter":9987
		}
	],
	"buffers":[
		{
			"byteLength":22952,
			"uri":"tree.bin"
		}
	]
}
